<?xml version="1.0" standalone="no"?>
<!DOCTYPE svg PUBLIC "-//W3C//DTD SVG 20010904//EN"
 "http://www.w3.org/TR/2001/REC-SVG-20010904/DTD/svg10.dtd">
<svg version="1.0" xmlns="http://www.w3.org/2000/svg"
 width="179.000000pt" height="179.000000pt" viewBox="0 0 179.000000 179.000000"
 preserveAspectRatio="xMidYMid meet">
<metadata>
Created by potrace 1.14, written by Peter Selinger 2001-2017
</metadata>
<g transform="translate(0.000000,774.000000) scale(0.100000,-0.100000)"
fill="#000000" stroke="none">
<path d="M4581 6629 c-18 -11 -53 -34 -76 -52 -24 -18 -55 -41 -71 -52 -15
-11 -33 -26 -41 -33 -11 -11 -26 -11 -81 -2 -37 6 -74 13 -82 15 -21 4 -122
19 -139 19 -10 1 -15 -11 -17 -34 -5 -103 -15 -227 -20 -240 -3 -8 -36 -39
-75 -67 -60 -46 -74 -50 -71 -22 1 8 9 110 17 234 3 50 8 100 10 113 3 17 -2
26 -18 32 -24 9 -518 5 -582 -5 -22 -4 -49 -8 -60 -10 -11 -2 -28 -4 -39 -4
-18 -1 -19 -22 0 -114 2 -12 11 -58 19 -102 8 -44 17 -93 20 -110 11 -59 25
-136 34 -187 5 -29 13 -69 17 -88 3 -19 6 -43 6 -52 -1 -29 17 -36 105 -39 29
-1 51 -5 48 -8 -2 -4 -67 -54 -145 -111 -78 -58 -147 -110 -153 -115 -7 -6
-28 -22 -47 -35 -19 -14 -42 -30 -50 -37 -8 -6 -44 -33 -80 -60 -36 -26 -69
-51 -75 -55 -10 -8 -65 -50 -115 -87 -14 -10 -101 -75 -194 -145 -92 -69 -170
-126 -172 -126 -2 0 -14 -9 -26 -19 -13 -11 -61 -48 -107 -83 -131 -98 -155
-168 -98 -287 11 -22 35 -43 162 -137 33 -24 65 -47 70 -52 6 -4 35 -25 65
-47 30 -22 60 -43 65 -48 6 -4 78 -58 160 -119 83 -60 161 -119 175 -129 25
-19 376 -279 426 -315 27 -20 190 -140 234 -173 14 -10 84 -62 155 -115 72
-52 135 -99 140 -103 6 -5 44 -33 85 -63 41 -30 77 -57 80 -60 3 -3 28 -22 55
-41 28 -18 52 -36 55 -39 3 -3 77 -59 165 -124 88 -64 171 -127 185 -138 43
-33 93 -54 140 -57 25 -2 237 -4 472 -5 l426 -1 43 30 c74 52 102 145 68 227
-17 41 -29 53 -159 158 -58 47 -114 92 -125 101 -11 10 -56 46 -100 80 -44 35
-82 66 -85 69 -3 3 -27 23 -55 44 -27 22 -58 48 -68 58 -10 10 -21 18 -25 18
-4 0 -23 15 -43 34 l-36 34 3 599 c2 329 4 600 5 603 1 3 0 10 -1 15 -3 13 -1
184 2 253 2 28 -1 52 -5 52 -5 0 -5 5 -2 10 9 14 9 135 1 149 -15 23 23 9 99
-38 44 -27 84 -47 90 -45 5 2 23 26 40 52 16 26 32 49 35 52 9 9 330 489 335
502 4 9 -35 39 -105 82 -60 38 -110 72 -109 75 0 3 32 31 70 61 39 30 80 63
92 74 12 10 37 30 56 44 54 42 84 98 82 154 -1 82 -32 133 -100 169 -48 25
-22 23 -616 33 -296 4 -312 4 -344 -15z m-168 -1481 c-1 -117 -3 -381 -3 -585
-1 -205 -3 -373 -6 -373 -4 0 -203 158 -277 220 -11 9 -49 40 -187 150 -121
97 -141 124 -145 199 -2 25 4 62 12 82 16 42 31 57 203 194 69 55 130 105 136
110 6 6 25 21 43 35 18 14 38 30 44 35 17 15 179 145 180 145 1 0 1 -96 0
-212z"/>
<path d="M3015 6479 c-74 -15 -83 -17 -166 -39 -46 -12 -91 -24 -99 -27 -8 -4
-17 -7 -20 -8 -27 -6 -106 -35 -208 -73 -111 -43 -122 -49 -118 -68 6 -21 29
-74 112 -251 19 -40 45 -98 59 -130 73 -164 66 -155 100 -149 16 2 68 14 114
26 47 12 96 23 110 25 78 12 98 15 121 20 24 5 114 16 155 19 11 1 19 6 19 11
-1 6 -5 30 -8 55 -3 25 -17 104 -30 175 -14 72 -27 144 -30 160 -13 76 -25
144 -35 185 -5 25 -10 46 -10 48 -1 1 -1 9 -1 17 0 16 -6 17 -65 4z"/>
<path d="M2210 6193 c-197 -108 -288 -166 -443 -280 l-107 -80 47 -59 c63 -78
252 -305 268 -322 10 -11 27 -7 96 26 46 22 113 54 149 70 128 59 285 134 289
137 2 3 -4 21 -14 42 -80 169 -125 265 -125 269 0 2 -20 44 -44 93 -24 49 -42
91 -40 94 2 2 -4 11 -13 19 -16 14 -22 13 -63 -9z"/>
<path d="M5654 5843 c-10 -16 -23 -36 -29 -45 -15 -25 -73 -112 -83 -123 -4
-5 -35 -50 -68 -100 -33 -49 -95 -141 -138 -204 l-78 -114 24 -21 c12 -12 33
-28 44 -37 37 -25 174 -150 256 -233 65 -66 79 -76 91 -65 8 8 36 32 62 54 27
22 61 51 76 65 15 14 49 43 76 65 26 22 68 58 94 80 25 22 57 49 70 60 13 11
56 47 95 81 l71 61 -29 34 c-49 56 -180 190 -244 249 -94 87 -255 220 -267
220 -2 0 -13 -12 -23 -27z"/>
<path d="M1443 5630 c-57 -55 -103 -102 -103 -104 0 -2 -15 -19 -32 -38 -18
-18 -51 -56 -73 -83 -22 -28 -42 -52 -45 -55 -30 -30 -115 -150 -108 -154 2
-1 28 -20 58 -42 91 -68 167 -123 206 -149 l36 -24 65 62 c37 34 73 69 82 77
9 8 52 43 96 77 44 35 86 67 92 73 7 6 34 25 60 42 93 61 94 45 -18 182 -56
66 -113 135 -128 152 -16 16 -36 42 -46 57 -9 15 -22 27 -29 27 -6 0 -57 -45
-113 -100z"/>
<path d="M6263 5218 c-21 -18 -43 -37 -49 -43 -6 -5 -33 -28 -59 -50 -27 -22
-53 -44 -59 -50 -6 -5 -58 -50 -116 -99 -58 -49 -109 -94 -115 -101 -5 -6 -33
-30 -62 -52 l-52 -41 63 -83 c91 -121 226 -336 226 -359 0 -19 27 -14 99 21
92 44 177 84 211 98 14 6 32 15 40 20 17 11 53 23 59 21 2 -1 7 2 10 7 3 4 31
19 61 33 30 14 58 29 61 33 3 5 9 8 13 8 3 -1 28 8 55 19 l48 21 -13 37 c-23
67 -146 283 -231 404 -18 26 -33 52 -33 57 0 5 -4 11 -8 13 -4 2 -28 29 -52
61 -25 31 -48 57 -52 57 -4 0 -24 -15 -45 -32z"/>
<path d="M967 5043 c-107 -169 -266 -501 -289 -601 -2 -8 27 -24 77 -43 44
-17 89 -34 100 -39 52 -21 53 -21 91 48 55 98 183 288 228 339 6 6 21 24 33
40 12 16 34 42 48 58 15 15 23 31 18 35 -20 18 -273 200 -278 200 -2 0 -15
-17 -28 -37z"/>
<path d="M1778 4868 c-17 -21 -17 -23 0 -38 15 -15 235 -245 342 -360 23 -25
101 -107 174 -184 72 -76 147 -155 166 -176 19 -20 100 -106 180 -190 158
-167 159 -168 336 -356 198 -210 185 -194 174 -214 -16 -30 -11 -108 9 -148
39 -75 122 -124 199 -115 37 4 132 50 132 64 0 4 7 15 16 23 9 9 17 22 18 29
2 6 7 20 11 30 13 30 -2 125 -26 163 -45 73 -157 112 -237 82 -31 -12 8 -50
-1133 1087 -179 179 -329 325 -335 325 -5 0 -17 -10 -26 -22z"/>
<path d="M6755 4468 c-27 -11 -66 -27 -85 -36 -19 -8 -93 -39 -165 -67 -71
-29 -148 -60 -170 -70 -22 -10 -49 -21 -60 -26 -115 -46 -160 -68 -158 -75 2
-5 25 -64 53 -132 27 -68 52 -133 54 -145 3 -12 10 -37 16 -54 l12 -33 364 0
c200 0 364 4 364 9 0 83 -123 556 -163 628 l-12 22 -50 -21z"/>
<path d="M1810 4389 c-50 -25 -48 -22 -313 -363 -12 -16 -34 -43 -48 -60 -14
-17 -63 -80 -109 -141 -46 -60 -87 -112 -90 -115 -3 -3 -19 -23 -36 -45 -16
-22 -33 -45 -39 -51 -5 -6 -19 -23 -30 -38 -11 -16 -25 -33 -30 -40 -6 -6 -58
-72 -115 -146 -58 -74 -110 -142 -117 -150 -7 -8 -66 -84 -132 -168 -137 -174
-150 -189 -152 -170 -1 7 0 18 1 23 3 13 12 292 14 404 l1 84 -30 5 c-16 3
-50 6 -75 6 l-45 1 0 -190 c1 -176 7 -295 21 -405 3 -25 7 -54 8 -65 1 -17
-52 -90 -202 -280 -119 -151 -252 -325 -261 -343 -17 -31 -20 -95 -25 -533
l-5 -376 26 -39 c33 -48 48 -64 62 -64 6 0 11 -4 11 -9 0 -11 63 -25 106 -24
52 1 102 33 162 101 31 36 66 75 77 87 11 12 38 44 60 71 21 27 42 51 45 54 3
3 57 66 120 140 63 74 126 148 140 164 14 16 33 37 42 47 16 17 73 18 1026 16
881 -2 1010 -4 1023 -17 9 -8 62 -71 118 -140 57 -69 112 -133 123 -142 11
-10 17 -18 14 -18 -3 0 5 -12 18 -27 44 -50 67 -77 89 -106 12 -15 37 -44 55
-65 18 -20 49 -58 70 -84 42 -52 106 -88 158 -88 50 0 127 36 153 70 44 61 41
29 57 570 3 118 6 231 7 250 3 100 -1 108 -223 395 -25 33 -106 139 -180 235
-73 96 -136 177 -139 180 -4 3 -38 48 -76 100 -39 52 -83 111 -100 131 -16 20
-39 49 -50 64 -11 16 -45 60 -76 99 -30 39 -100 130 -154 201 -136 179 -227
298 -240 312 -5 7 -31 40 -57 75 -26 35 -92 120 -145 189 -54 70 -105 137
-113 149 -8 12 -22 30 -30 40 -33 41 -47 58 -90 115 -58 77 -94 113 -128 126
-45 17 -114 16 -152 -2z m173 -1545 c30 -16 121 -118 287 -323 44 -55 86 -104
128 -151 17 -21 32 -40 32 -43 0 -3 -247 -5 -550 -5 l-549 1 41 51 c23 28 49
58 58 67 8 9 33 38 55 64 22 27 45 53 50 59 6 6 48 56 95 111 135 158 140 164
193 183 56 21 103 17 160 -14z"/>
<path d="M615 4271 c-3 -11 -8 -28 -10 -38 -2 -10 -9 -34 -15 -53 -16 -48 -69
-277 -75 -320 -2 -19 -7 -46 -10 -60 -5 -28 -12 -75 -20 -139 -3 -23 -7 -46
-10 -51 -2 -4 1 -14 8 -23 8 -11 32 -17 81 -19 l70 -3 42 165 c42 164 88 301
138 414 15 33 23 63 19 67 -8 7 -147 61 -190 74 -16 4 -23 1 -28 -14z"/>
<path d="M4947 2624 c-2 -2 -17 -6 -33 -7 -87 -11 -126 -58 -134 -165 l-5 -77
-42 1 -43 0 0 -62 0 -62 43 1 42 2 2 -240 c1 -132 2 -261 2 -287 l1 -46 88 1
88 1 -1 270 c-1 149 2 278 6 287 6 11 21 15 53 14 l46 -1 0 58 c0 32 -4 59
-10 59 -5 1 -29 2 -52 3 l-43 1 2 43 c2 55 16 72 64 72 l39 0 0 64 c0 59 -1
63 -22 62 -13 -1 -37 1 -55 5 -18 4 -34 5 -36 3z"/>
<path d="M4214 2595 c-11 -9 -93 -298 -139 -490 -4 -16 -21 -77 -36 -135 -16
-58 -31 -114 -33 -125 -2 -11 -13 -52 -24 -91 l-20 -70 100 -1 c55 -1 97 1 94
4 -3 3 -1 13 3 22 5 9 11 30 14 46 11 56 18 90 23 106 4 14 22 16 126 15 l122
-1 13 -60 c7 -33 15 -73 18 -90 3 -16 11 -33 17 -37 9 -5 177 -5 185 1 1 0 -3
16 -8 34 -10 31 -14 46 -23 85 -3 9 -16 62 -31 117 -15 55 -47 177 -71 270
-25 94 -50 186 -55 205 -5 19 -11 42 -13 50 -2 8 -9 35 -16 60 -7 25 -14 53
-16 64 -2 10 -5 21 -8 23 -9 10 -210 8 -222 -2z m130 -251 c3 -17 11 -58 19
-90 8 -32 18 -75 21 -94 3 -19 9 -46 12 -60 17 -77 25 -70 -76 -70 -86 0 -91
1 -85 19 3 11 8 30 11 43 6 31 9 46 34 158 11 52 22 105 25 118 2 12 7 32 11
45 7 21 8 21 16 -8 4 -16 10 -44 12 -61z"/>
<path d="M5137 2598 c-8 -5 -11 -141 -11 -461 l-1 -454 88 0 c58 -1 87 3 88
11 7 58 2 899 -4 903 -13 8 -147 9 -160 1z"/>
<path d="M5659 2594 c-5 -6 -11 -21 -13 -35 -3 -13 -5 -24 -6 -24 -1 0 -3 -7
-5 -15 -1 -8 -15 -60 -30 -115 -14 -55 -28 -107 -30 -115 -2 -8 -10 -42 -20
-75 -30 -111 -36 -130 -40 -150 -3 -11 -13 -50 -24 -87 -11 -38 -17 -68 -14
-68 3 0 1 -6 -4 -12 -6 -7 -10 -20 -11 -28 0 -8 -9 -45 -20 -82 -12 -38 -18
-68 -15 -68 3 0 0 -6 -6 -14 -7 -8 -8 -17 -3 -19 16 -11 192 -4 193 7 0 6 2
18 4 26 5 21 14 60 21 95 12 64 4 60 136 60 l122 0 19 -85 c11 -47 21 -90 23
-97 2 -8 32 -12 99 -11 l96 1 -6 26 c-4 14 -9 37 -11 50 -3 13 -9 32 -15 43
-5 10 -7 18 -4 18 3 0 1 8 -4 18 -6 11 -12 30 -15 43 -5 25 -63 252 -91 354
-9 33 -18 67 -20 75 -2 8 -13 51 -25 95 -12 44 -23 87 -25 96 -9 41 -29 99
-34 100 -44 7 -215 2 -222 -7z m136 -244 c2 -14 9 -45 14 -70 18 -81 21 -95
26 -120 3 -14 7 -34 9 -45 3 -11 8 -35 12 -52 l7 -33 -91 0 c-69 0 -90 3 -87
13 2 6 7 23 9 37 8 41 73 339 76 350 2 6 18 -45 25 -80z"/>
<path d="M6887 2570 c-9 -3 -13 -31 -12 -90 0 -47 -1 -90 -3 -96 -2 -7 -19
-11 -43 -9 -21 2 -40 0 -40 -3 -5 -22 -7 -89 -3 -103 3 -12 15 -15 44 -14 23
1 40 -3 41 -9 0 -6 2 -117 3 -246 2 -196 5 -240 19 -266 16 -31 52 -52 92 -53
67 -3 159 0 164 5 10 10 7 114 -4 115 -5 1 -23 2 -39 3 -51 3 -54 18 -52 244
l1 207 48 -1 c26 0 47 3 48 6 0 3 1 30 2 60 l2 54 -50 1 -50 0 -2 50 c-1 28
-2 73 -2 100 l-1 50 -75 0 c-42 0 -81 -2 -88 -5z"/>
<path d="M7418 2389 c-87 -12 -134 -42 -176 -110 -12 -20 -24 -47 -26 -60 -3
-13 -5 -24 -6 -24 -6 0 -13 -84 -14 -160 0 -102 9 -188 25 -216 5 -10 7 -19 3
-19 -9 0 46 -71 71 -92 45 -37 192 -52 275 -27 78 24 142 104 157 196 4 27 8
107 7 178 -1 109 -5 139 -23 187 -29 75 -77 123 -139 137 -73 17 -93 18 -154
10z m87 -125 c37 -15 58 -108 56 -252 -3 -162 -24 -215 -88 -225 -43 -7 -78
28 -91 90 -14 65 -9 302 7 333 30 56 66 73 116 54z"/>
<path d="M6199 2369 c-7 -4 -10 -100 -7 -300 3 -283 4 -295 25 -330 31 -50 82
-73 153 -71 66 3 111 20 148 59 31 31 33 32 32 11 -5 -60 -7 -59 83 -56 l82 3
1 343 c0 188 -2 342 -5 343 -34 6 -163 3 -168 -4 -3 -5 -6 -118 -6 -250 0
-184 -3 -249 -14 -274 -7 -19 -18 -31 -23 -28 -5 3 -11 1 -15 -5 -9 -15 -68
-12 -91 4 -18 14 -19 31 -22 285 -2 149 -6 271 -10 272 -33 5 -155 4 -163 -2z"/>
</g>
</svg>
